<svg xmlns="http://www.w3.org/2000/svg" xmlns:xlink="http://www.w3.org/1999/xlink" version="1.1" viewBox="0 0 2216 2016" style="background: #ffffff"><defs joint-selector="defs"></defs><g joint-selector="layers"  transform="matrix(1,0,0,1,0,0)"><g ></g><g ><!--z-index:1--><!--z-index:2--><!--z-index:3--><!--z-index:4--><!--z-index:5--><!--z-index:6--><!--z-index:7--><!--z-index:8--><!--z-index:9--><!--z-index:10--><!--z-index:11--><!--z-index:12--><!--z-index:13--><g   id="j_2"  transform="translate(20,1979.6)"><g id="v-5"><text  id="v-6" font-size="22px" xml:space="preserve" y="0.8em" font-weight="normal" text-anchor="start" fill="#aaaaaa" pointer-events="none" display="block" font-family="Arial"><tspan dy="0"  display="block">среда, 11 марта 2026 г. в 18:49 Москва, стандартное время</tspan></text></g></g><!--z-index:14--><g   id="j_1"  transform="translate(20,1936.3999999999999)"><g id="v-3"><text  id="v-4" font-size="36px" xml:space="preserve" y="0.8em" font-weight="normal" text-anchor="start" fill="#000000" pointer-events="none" display="block" font-family="Arial"><tspan dy="0"  display="block">C1: System Context — Сервис доставки</tspan></text></g></g><!--z-index:15--><g   id="j_3"  transform="translate(208,208)" style=""><g  id="v-7" style="opacity: 1;"><rect  x="0" y="160" width="400" height="240" rx="70" id="v-9" stroke="#073b6f" stroke-width="2" pointer-events="visiblePainted" fill="#08427b" style="fill: rgb(8, 66, 123); stroke: rgb(7, 59, 111);"></rect><circle  cx="200" cy="88.88888888888889" r="88.88888888888889" id="v-8" stroke="#073b6f" stroke-width="2" pointer-events="visiblePainted" fill="#08427b" style="fill: rgb(8, 66, 123); stroke: rgb(7, 59, 111);"></circle><line  x1="80" y1="266.6666666666667" x2="80" y2="400" id="v-15" stroke="#073b6f" stroke-width="2" style="stroke: rgb(7, 59, 111);"></line><line  x1="320" y1="266.6666666666667" x2="320" y2="400" id="v-16" stroke="#073b6f" stroke-width="2" style="stroke: rgb(7, 59, 111);"></line><text  id="v-10" font-size="24" xml:space="preserve" y="0.8em" font-weight="bold" text-anchor="middle" pointer-events="visible" font-family="Arial" fill="#ffffff" transform="matrix(1,0,0,1,200,250.5)" style="fill: rgb(255, 255, 255);"><tspan dy="0" >Гость</tspan></text><text  id="v-11" font-size="7" xml:space="preserve" y="0.8em" text-anchor="middle" font-family="Arial" fill="#ffffff" transform="matrix(1,0,0,1,200,279.3)" style="fill: rgb(255, 255, 255);"><tspan dy="0" >[Person]</tspan></text><text  id="v-12" font-size="14" xml:space="preserve" y="0.8em" text-anchor="middle" font-family="Arial" fill="#ffffff" transform="matrix(1,0,0,1,200,297.7)" style="fill: rgb(255, 255, 255);"><tspan dy="0" >Незарегистрированный пользователь</tspan></text><g  id="v-13" font-weight="normal" text-anchor="middle" color="#ffffff" transform="matrix(1,0,0,1,200,368)" display="none" style="fill: rgb(255, 255, 255);"><g ></g><g ></g><g ></g><g ></g></g><image  id="v-14"></image></g></g><!--z-index:16--><g   id="j_4"  transform="translate(908,208)" style=""><g  id="v-17" style="opacity: 1;"><rect  x="0" y="160" width="400" height="240" rx="70" id="v-19" stroke="#073b6f" stroke-width="2" pointer-events="visiblePainted" fill="#08427b" style="fill: rgb(8, 66, 123); stroke: rgb(7, 59, 111);"></rect><circle  cx="200" cy="88.88888888888889" r="88.88888888888889" id="v-18" stroke="#073b6f" stroke-width="2" pointer-events="visiblePainted" fill="#08427b" style="fill: rgb(8, 66, 123); stroke: rgb(7, 59, 111);"></circle><line  x1="80" y1="266.6666666666667" x2="80" y2="400" id="v-25" stroke="#073b6f" stroke-width="2" style="stroke: rgb(7, 59, 111);"></line><line  x1="320" y1="266.6666666666667" x2="320" y2="400" id="v-26" stroke="#073b6f" stroke-width="2" style="stroke: rgb(7, 59, 111);"></line><text  id="v-20" font-size="24" xml:space="preserve" y="0.8em" font-weight="bold" text-anchor="middle" pointer-events="visible" font-family="Arial" fill="#ffffff" transform="matrix(1,0,0,1,200,250.5)" style="fill: rgb(255, 255, 255);"><tspan dy="0" >Пользователь</tspan></text><text  id="v-21" font-size="7" xml:space="preserve" y="0.8em" text-anchor="middle" font-family="Arial" fill="#ffffff" transform="matrix(1,0,0,1,200,279.3)" style="fill: rgb(255, 255, 255);"><tspan dy="0" >[Person]</tspan></text><text  id="v-22" font-size="14" xml:space="preserve" y="0.8em" text-anchor="middle" font-family="Arial" fill="#ffffff" transform="matrix(1,0,0,1,200,297.7)" style="fill: rgb(255, 255, 255);"><tspan dy="0" >Зарегистрированный пользователь</tspan></text><g  id="v-23" font-weight="normal" text-anchor="middle" color="#ffffff" transform="matrix(1,0,0,1,200,368)" display="none" style="fill: rgb(255, 255, 255);"><g ></g><g ></g><g ></g><g ></g></g><image  id="v-24"></image></g></g><!--z-index:17--><g   id="j_5"  transform="translate(1608,208)" style=""><g  id="v-27" style="opacity: 1;"><rect  x="0" y="160" width="400" height="240" rx="70" id="v-29" stroke="#073b6f" stroke-width="2" pointer-events="visiblePainted" fill="#08427b" style="fill: rgb(8, 66, 123); stroke: rgb(7, 59, 111);"></rect><circle  cx="200" cy="88.88888888888889" r="88.88888888888889" id="v-28" stroke="#073b6f" stroke-width="2" pointer-events="visiblePainted" fill="#08427b" style="fill: rgb(8, 66, 123); stroke: rgb(7, 59, 111);"></circle><line  x1="80" y1="266.6666666666667" x2="80" y2="400" id="v-35" stroke="#073b6f" stroke-width="2" style="stroke: rgb(7, 59, 111);"></line><line  x1="320" y1="266.6666666666667" x2="320" y2="400" id="v-36" stroke="#073b6f" stroke-width="2" style="stroke: rgb(7, 59, 111);"></line><text  id="v-30" font-size="24" xml:space="preserve" y="0.8em" font-weight="bold" text-anchor="middle" pointer-events="visible" font-family="Arial" fill="#ffffff" transform="matrix(1,0,0,1,200,250.5)" style="fill: rgb(255, 255, 255);"><tspan dy="0" >Администратор</tspan></text><text  id="v-31" font-size="7" xml:space="preserve" y="0.8em" text-anchor="middle" font-family="Arial" fill="#ffffff" transform="matrix(1,0,0,1,200,279.3)" style="fill: rgb(255, 255, 255);"><tspan dy="0" >[Person]</tspan></text><text  id="v-32" font-size="14" xml:space="preserve" y="0.8em" text-anchor="middle" font-family="Arial" fill="#ffffff" transform="matrix(1,0,0,1,200,297.7)" style="fill: rgb(255, 255, 255);"><tspan dy="0" >Администратор системы</tspan></text><g  id="v-33" font-weight="normal" text-anchor="middle" color="#ffffff" transform="matrix(1,0,0,1,200,368)" display="none" style="fill: rgb(255, 255, 255);"><g ></g><g ></g><g ></g><g ></g></g><image  id="v-34"></image></g></g><!--z-index:18--><g   id="j_6"  transform="translate(508,1508)" style=""><g  id="v-43" style="opacity: 1;"><rect  id="v-44" rx="1" ry="1" stroke="#8a8a8a" stroke-width="2" pointer-events="visiblePainted" fill="#999999" width="450" height="300" style="fill: rgb(153, 153, 153); stroke: rgb(138, 138, 138);"></rect><text  id="v-45" font-size="34" xml:space="preserve" y="0.8em" font-weight="bold" text-anchor="middle" pointer-events="visible" font-family="Arial" fill="#ffffff" transform="matrix(1,0,0,1,225,88.1)" style="fill: rgb(255, 255, 255);"><tspan dy="0" >Платежная система</tspan></text><text  id="v-46" font-size="17" xml:space="preserve" y="0.8em" text-anchor="middle" font-family="Arial" fill="#ffffff" transform="matrix(1,0,0,1,225,128.9)" style="fill: rgb(255, 255, 255);"><tspan dy="0" >[Software System]</tspan></text><text  id="v-47" font-size="24" xml:space="preserve" y="0.8em" text-anchor="middle" font-family="Arial" fill="#ffffff" transform="matrix(1,0,0,1,225,159.3)" style="fill: rgb(255, 255, 255);"><tspan dy="0" >Обработка платежей за услуги</tspan><tspan dy="1.2em" x="0" >доставки</tspan></text><g  id="v-48" color="#ffffff" transform="matrix(1,0,0,1,0,268)" display="none" style="fill: rgb(255, 255, 255);"><g ></g><g ></g><g ></g><g ></g></g><image  id="v-49"></image></g></g><!--z-index:19--><g   id="j_7"  transform="translate(1258,1508)" style=""><g  id="v-56" style="opacity: 1;"><rect  id="v-57" rx="1" ry="1" stroke="#8a8a8a" stroke-width="2" pointer-events="visiblePainted" fill="#999999" width="450" height="300" style="fill: rgb(153, 153, 153); stroke: rgb(138, 138, 138);"></rect><text  id="v-58" font-size="34" xml:space="preserve" y="0.8em" font-weight="bold" text-anchor="middle" pointer-events="visible" font-family="Arial" fill="#ffffff" transform="matrix(1,0,0,1,225,88.1)" style="fill: rgb(255, 255, 255);"><tspan dy="0" >Сервис уведомлений</tspan></text><text  id="v-59" font-size="17" xml:space="preserve" y="0.8em" text-anchor="middle" font-family="Arial" fill="#ffffff" transform="matrix(1,0,0,1,225,128.9)" style="fill: rgb(255, 255, 255);"><tspan dy="0" >[Software System]</tspan></text><text  id="v-60" font-size="24" xml:space="preserve" y="0.8em" text-anchor="middle" font-family="Arial" fill="#ffffff" transform="matrix(1,0,0,1,225,159.3)" style="fill: rgb(255, 255, 255);"><tspan dy="0" >Отправка SMS и email уведомлений</tspan><tspan dy="1.2em" x="0" >о статусе доставки</tspan></text><g  id="v-61" color="#ffffff" transform="matrix(1,0,0,1,0,268)" display="none" style="fill: rgb(255, 255, 255);"><g ></g><g ></g><g ></g><g ></g></g><image  id="v-62"></image></g></g><!--z-index:20--><g   id="j_8"  transform="translate(883,908)" style=""><g  id="v-66" style="opacity: 1;"><rect  id="v-67" rx="1" ry="1" stroke="#0f5eaa" stroke-width="2" pointer-events="visiblePainted" fill="#1168bd" width="450" height="300" style="fill: rgb(17, 104, 189); stroke: rgb(15, 94, 170);"></rect><text  id="v-68" font-size="34" xml:space="preserve" y="0.8em" font-weight="bold" text-anchor="middle" pointer-events="visible" font-family="Arial" fill="#ffffff" transform="matrix(1,0,0,1,225,73.7)" style="fill: rgb(255, 255, 255);"><tspan dy="0" >Сервис доставки</tspan></text><text  id="v-69" font-size="17" xml:space="preserve" y="0.8em" text-anchor="middle" font-family="Arial" fill="#ffffff" transform="matrix(1,0,0,1,225,114.5)" style="fill: rgb(255, 255, 255);"><tspan dy="0" >[Software System]</tspan></text><text  id="v-70" font-size="24" xml:space="preserve" y="0.8em" text-anchor="middle" font-family="Arial" fill="#ffffff" transform="matrix(1,0,0,1,225,144.9)" style="fill: rgb(255, 255, 255);"><tspan dy="0" >Платформа для управления</tspan><tspan dy="1.2em" x="0" >посылками и доставками между</tspan><tspan dy="1.2em" x="0" >пользователями</tspan></text><g  id="v-71" color="#ffffff" transform="matrix(1,0,0,1,0,268)" display="none" style="fill: rgb(255, 255, 255);"><g ></g><g ></g><g ></g><g ></g></g><image  id="v-72"></image></g></g><!--z-index:21--><g   id="j_9" ><path  stroke="#707070" d="M 608 594 L 946 908" id="v-85" stroke-width="2" stroke-dasharray="30 30" fill="none" style="opacity: 1;"></path><path  fill="black" stroke="black" d="M 0 0 0 0" transform="matrix(0.7327935054980231,0.6804510844284977,-0.6804510844284977,0.7327935054980231,608,593.7142944335938)"></path><path  fill="#707070" stroke="#707070" d="M 20 0 L 0 10 L 20 20 z" id="v-87" transform="matrix(-0.7327934601942503,-0.6804511332171748,0.6804511332171748,-0.7327934601942503,939.657029226802,915.327941539583)" style="opacity: 1;"></path><path  d="M 608 594 L 946 908" id="v-86" fill="none" style="pointer-events: visiblepainted; cursor: auto;"></path><g ><g id="v-79"  label-idx="0" cursor="move" transform="matrix(1,0,0,1,777,751)" style="opacity: 1;"><rect joint-selector="rect" id="v-82" fill="#ffffff" rx="3" ry="3" pointer-events="none" width="172.3134765625" height="113.70763778686523" transform="matrix(1,0,0,1,-86.2,-56.9)"></rect><text joint-selector="text" id="v-81" font-size="24px" xml:space="preserve" y="0.8em" fill="#707070" text-anchor="middle" pointer-events="none" font-family="Arial" font-weight="normal" transform="matrix(1,0,0,1,0,-53.8)"><tspan dy="0" >Просматривает</tspan><tspan dy="1.2em" x="0" >информацию о</tspan><tspan dy="1.2em" x="0" >сервисе,</tspan><tspan dy="1.2em" x="0" >регистрируется</tspan></text></g><g id="v-80"  label-idx="1" cursor="move" transform="matrix(1,0,0,1,767,820.5999755859375)" style="opacity: 1;"><rect joint-selector="rect" id="v-84" fill="#ffffff" rx="3" ry="3"  width="0" height="0" transform="matrix(1,0,0,1,0,0)" display="none"></rect><text joint-selector="text" id="v-83" fill="#000000" font-size="14" text-anchor="middle" pointer-events="none"></text></g></g><g  display="none" style="display: none;"></g><g  id="v-89" display="none"><g  id="v-77"><path  end="source" d="M 26 0 L 0 13 L 26 26 z"></path></g><g  id="v-78"><path  end="target" d="M 26 0 L 0 13 L 26 26 z"></path></g></g><g  id="v-88" display="none"><g  id="v-76" transform="translate(637.3055628171139, 621.2246944514018) "><g  event="remove"><circle r="11"></circle><path transform="scale(.8) translate(-16, -16)" d="M24.778,21.419 19.276,15.917 24.777,10.415 21.949,7.585 16.447,13.087 10.945,7.585 8.117,10.415 13.618,15.917 8.116,21.419 10.946,24.248 16.447,18.746 21.948,24.248z"></path><title>Remove link.</title></g><g  event="link:options"><circle r="11" transform="translate(25)"></circle><path fill="white" transform="scale(.55) translate(29, -16)" d="M31.229,17.736c0.064-0.571,0.104-1.148,0.104-1.736s-0.04-1.166-0.104-1.737l-4.377-1.557c-0.218-0.716-0.504-1.401-0.851-2.05l1.993-4.192c-0.725-0.91-1.549-1.734-2.458-2.459l-4.193,1.994c-0.647-0.347-1.334-0.632-2.049-0.849l-1.558-4.378C17.165,0.708,16.588,0.667,16,0.667s-1.166,0.041-1.737,0.105L12.707,5.15c-0.716,0.217-1.401,0.502-2.05,0.849L6.464,4.005C5.554,4.73,4.73,5.554,4.005,6.464l1.994,4.192c-0.347,0.648-0.632,1.334-0.849,2.05l-4.378,1.557C0.708,14.834,0.667,15.412,0.667,16s0.041,1.165,0.105,1.736l4.378,1.558c0.217,0.715,0.502,1.401,0.849,2.049l-1.994,4.193c0.725,0.909,1.549,1.733,2.459,2.458l4.192-1.993c0.648,0.347,1.334,0.633,2.05,0.851l1.557,4.377c0.571,0.064,1.148,0.104,1.737,0.104c0.588,0,1.165-0.04,1.736-0.104l1.558-4.377c0.715-0.218,1.399-0.504,2.049-0.851l4.193,1.993c0.909-0.725,1.733-1.549,2.458-2.458l-1.993-4.193c0.347-0.647,0.633-1.334,0.851-2.049L31.229,17.736zM16,20.871c-2.69,0-4.872-2.182-4.872-4.871c0-2.69,2.182-4.872,4.872-4.872c2.689,0,4.871,2.182,4.871,4.872C20.871,18.689,18.689,20.871,16,20.871z"></path><title>Link options.</title></g></g></g></g><!--z-index:22--><g   id="j_10" ><path  stroke="#707070" d="M 1108 608 L 1108 908" id="v-102" stroke-width="2" stroke-dasharray="30 30" fill="none" style="opacity: 1;"></path><path  fill="black" stroke="black" d="M 0 0 0 0" transform="matrix(6.123233995736765e-17,0.9999999999999999,-0.9999999999999999,6.123233995736765e-17,1108,608)"></path><path  fill="#707070" stroke="#707070" d="M 20 0 L 0 10 L 20 20 z" id="v-104" transform="matrix(-1.8369701987210294e-16,-0.9999999999999999,0.9999999999999999,-1.8369701987210294e-16,1098,908)" style="opacity: 1;"></path><path  d="M 1108 608 L 1108 908" id="v-103" fill="none" style="pointer-events: visiblepainted; cursor: auto;"></path><g ><g id="v-96"  label-idx="0" cursor="move" transform="matrix(1,0,0,1,1108,758)" style="opacity: 1;"><rect joint-selector="rect" id="v-99" fill="#ffffff" rx="3" ry="3" pointer-events="none" width="201.31578063964844" height="171.3076629638672" transform="matrix(1,0,0,1,-100.7,-85.7)"></rect><text joint-selector="text" id="v-98" font-size="24px" xml:space="preserve" y="0.8em" fill="#707070" text-anchor="middle" pointer-events="none" font-family="Arial" font-weight="normal" transform="matrix(1,0,0,1,0,-82.6)"><tspan dy="0" >Создаёт посылки,</tspan><tspan dy="1.2em" x="0" >оформляет</tspan><tspan dy="1.2em" x="0" >доставку,</tspan><tspan dy="1.2em" x="0" >отслеживает</tspan><tspan dy="1.2em" x="0" >отправления и</tspan><tspan dy="1.2em" x="0" >получает посылки</tspan></text></g><g id="v-97"  label-idx="1" cursor="move" transform="matrix(1,0,0,1,1098,856.4000244140625)" style="opacity: 1;"><rect joint-selector="rect" id="v-101" fill="#ffffff" rx="3" ry="3"  width="0" height="0" transform="matrix(1,0,0,1,0,0)" display="none"></rect><text joint-selector="text" id="v-100" fill="#000000" font-size="14" text-anchor="middle" pointer-events="none"></text></g></g><g  display="none" style="display: none;"></g><g  id="v-106" display="none"><g  id="v-94"><path  end="source" d="M 26 0 L 0 13 L 26 26 z"></path></g><g  id="v-95"><path  end="target" d="M 26 0 L 0 13 L 26 26 z"></path></g></g><g  id="v-105" display="none"><g  id="v-93" transform="translate(1108, 648) "><g  event="remove"><circle r="11"></circle><path transform="scale(.8) translate(-16, -16)" d="M24.778,21.419 19.276,15.917 24.777,10.415 21.949,7.585 16.447,13.087 10.945,7.585 8.117,10.415 13.618,15.917 8.116,21.419 10.946,24.248 16.447,18.746 21.948,24.248z"></path><title>Remove link.</title></g><g  event="link:options"><circle r="11" transform="translate(25)"></circle><path fill="white" transform="scale(.55) translate(29, -16)" d="M31.229,17.736c0.064-0.571,0.104-1.148,0.104-1.736s-0.04-1.166-0.104-1.737l-4.377-1.557c-0.218-0.716-0.504-1.401-0.851-2.05l1.993-4.192c-0.725-0.91-1.549-1.734-2.458-2.459l-4.193,1.994c-0.647-0.347-1.334-0.632-2.049-0.849l-1.558-4.378C17.165,0.708,16.588,0.667,16,0.667s-1.166,0.041-1.737,0.105L12.707,5.15c-0.716,0.217-1.401,0.502-2.05,0.849L6.464,4.005C5.554,4.73,4.73,5.554,4.005,6.464l1.994,4.192c-0.347,0.648-0.632,1.334-0.849,2.05l-4.378,1.557C0.708,14.834,0.667,15.412,0.667,16s0.041,1.165,0.105,1.736l4.378,1.558c0.217,0.715,0.502,1.401,0.849,2.049l-1.994,4.193c0.725,0.909,1.549,1.733,2.459,2.458l4.192-1.993c0.648,0.347,1.334,0.633,2.05,0.851l1.557,4.377c0.571,0.064,1.148,0.104,1.737,0.104c0.588,0,1.165-0.04,1.736-0.104l1.558-4.377c0.715-0.218,1.399-0.504,2.049-0.851l4.193,1.993c0.909-0.725,1.733-1.549,2.458-2.458l-1.993-4.193c0.347-0.647,0.633-1.334,0.851-2.049L31.229,17.736zM16,20.871c-2.69,0-4.872-2.182-4.872-4.871c0-2.69,2.182-4.872,4.872-4.872c2.689,0,4.871,2.182,4.871,4.872C20.871,18.689,18.689,20.871,16,20.871z"></path><title>Link options.</title></g></g></g></g><!--z-index:23--><g   id="j_11" ><path  stroke="#707070" d="M 1608 594 L 1270 908" id="v-119" stroke-width="2" stroke-dasharray="30 30" fill="none" style="opacity: 1;"></path><path  fill="black" stroke="black" d="M 0 0 0 0" transform="matrix(-0.7327934601942502,0.680451133217175,-0.680451133217175,-0.7327934601942502,1608,593.7142944335938)"></path><path  fill="#707070" stroke="#707070" d="M 20 0 L 0 10 L 20 20 z" id="v-121" transform="matrix(0.7327934601942504,-0.6804511332171748,0.6804511332171748,0.7327934601942504,1262.7340091440108,900.672072335698)" style="opacity: 1;"></path><path  d="M 1608 594 L 1270 908" id="v-120" fill="none" style="pointer-events: visiblepainted; cursor: auto;"></path><g ><g id="v-113"  label-idx="0" cursor="move" transform="matrix(1,0,0,1,1439,751)" style="opacity: 1;"><rect joint-selector="rect" id="v-116" fill="#ffffff" rx="3" ry="3" pointer-events="none" width="181.8199005126953" height="84.80537033081055" transform="matrix(1,0,0,1,-90.9,-42.4)"></rect><text joint-selector="text" id="v-115" font-size="24px" xml:space="preserve" y="0.8em" fill="#707070" text-anchor="middle" pointer-events="none" font-family="Arial" font-weight="normal" transform="matrix(1,0,0,1,0,-39.3)"><tspan dy="0" >Управляет</tspan><tspan dy="1.2em" x="0" >системой и</tspan><tspan dy="1.2em" x="0" >пользователями</tspan></text></g><g id="v-114"  label-idx="1" cursor="move" transform="matrix(1,0,0,1,1429,806.2000122070312)" style="opacity: 1;"><rect joint-selector="rect" id="v-118" fill="#ffffff" rx="3" ry="3"  width="0" height="0" transform="matrix(1,0,0,1,0,0)" display="none"></rect><text joint-selector="text" id="v-117" fill="#000000" font-size="14" text-anchor="middle" pointer-events="none"></text></g></g><g  display="none" style="display: none;"></g><g  id="v-123" display="none"><g  id="v-111"><path  end="source" d="M 26 0 L 0 13 L 26 26 z"></path></g><g  id="v-112"><path  end="target" d="M 26 0 L 0 13 L 26 26 z"></path></g></g><g  id="v-122" display="none"><g  id="v-110" transform="translate(1578.694437182886, 621.2246944514018) "><g  event="remove"><circle r="11"></circle><path transform="scale(.8) translate(-16, -16)" d="M24.778,21.419 19.276,15.917 24.777,10.415 21.949,7.585 16.447,13.087 10.945,7.585 8.117,10.415 13.618,15.917 8.116,21.419 10.946,24.248 16.447,18.746 21.948,24.248z"></path><title>Remove link.</title></g><g  event="link:options"><circle r="11" transform="translate(25)"></circle><path fill="white" transform="scale(.55) translate(29, -16)" d="M31.229,17.736c0.064-0.571,0.104-1.148,0.104-1.736s-0.04-1.166-0.104-1.737l-4.377-1.557c-0.218-0.716-0.504-1.401-0.851-2.05l1.993-4.192c-0.725-0.91-1.549-1.734-2.458-2.459l-4.193,1.994c-0.647-0.347-1.334-0.632-2.049-0.849l-1.558-4.378C17.165,0.708,16.588,0.667,16,0.667s-1.166,0.041-1.737,0.105L12.707,5.15c-0.716,0.217-1.401,0.502-2.05,0.849L6.464,4.005C5.554,4.73,4.73,5.554,4.005,6.464l1.994,4.192c-0.347,0.648-0.632,1.334-0.849,2.05l-4.378,1.557C0.708,14.834,0.667,15.412,0.667,16s0.041,1.165,0.105,1.736l4.378,1.558c0.217,0.715,0.502,1.401,0.849,2.049l-1.994,4.193c0.725,0.909,1.549,1.733,2.459,2.458l4.192-1.993c0.648,0.347,1.334,0.633,2.05,0.851l1.557,4.377c0.571,0.064,1.148,0.104,1.737,0.104c0.588,0,1.165-0.04,1.736-0.104l1.558-4.377c0.715-0.218,1.399-0.504,2.049-0.851l4.193,1.993c0.909-0.725,1.733-1.549,2.458-2.458l-1.993-4.193c0.347-0.647,0.633-1.334,0.851-2.049L31.229,17.736zM16,20.871c-2.69,0-4.872-2.182-4.872-4.871c0-2.69,2.182-4.872,4.872-4.872c2.689,0,4.871,2.182,4.871,4.872C20.871,18.689,18.689,20.871,16,20.871z"></path><title>Link options.</title></g></g></g></g><!--z-index:24--><g   id="j_12" ><path  stroke="#707070" d="M 1202 1208 L 1389 1508" id="v-136" stroke-width="2" stroke-dasharray="30 30" fill="none" style="opacity: 1;"></path><path  fill="black" stroke="black" d="M 0 0 0 0" transform="matrix(0.5299989300833599,0.8479983102049753,-0.8479983102049753,0.5299989300833599,1201.75,1208)"></path><path  fill="#707070" stroke="#707070" d="M 20 0 L 0 10 L 20 20 z" id="v-138" transform="matrix(-0.5299989865422613,-0.8479982749181602,0.8479982749181602,-0.5299989865422613,1380.769958288116,1513.2999921458543)" style="opacity: 1;"></path><path  d="M 1202 1208 L 1389 1508" id="v-137" fill="none" style="pointer-events: visiblepainted; cursor: auto;"></path><g ><g id="v-130"  label-idx="0" cursor="move" transform="matrix(1,0,0,1,1295.5,1358)" style="opacity: 1;"><rect joint-selector="rect" id="v-133" fill="#ffffff" rx="3" ry="3" pointer-events="none" width="148.10302734375" height="84.90765380859375" transform="matrix(1,0,0,1,-74.1,-42.5)"></rect><text joint-selector="text" id="v-132" font-size="24px" xml:space="preserve" y="0.8em" fill="#707070" text-anchor="middle" pointer-events="none" font-family="Arial" font-weight="normal" transform="matrix(1,0,0,1,0,-39.4)"><tspan dy="0" >Отправляет</tspan><tspan dy="1.2em" x="0" >SMS/email</tspan><tspan dy="1.2em" x="0" >уведомления</tspan></text></g><g id="v-131"  label-idx="1" cursor="move" transform="matrix(1,0,0,1,1285.5,1413.199951171875)" style="opacity: 1;"><rect joint-selector="rect" id="v-135" fill="#ffffff" rx="3" ry="3"  width="0" height="0" transform="matrix(1,0,0,1,0,0)" display="none"></rect><text joint-selector="text" id="v-134" fill="#000000" font-size="14" text-anchor="middle" pointer-events="none"></text></g></g><g  display="none" style="display: none;"></g><g  id="v-140" display="none"><g  id="v-128"><path  end="source" d="M 26 0 L 0 13 L 26 26 z"></path></g><g  id="v-129"><path  end="target" d="M 26 0 L 0 13 L 26 26 z"></path></g></g><g  id="v-139" display="none"><g  id="v-127" transform="translate(1223.159258803886, 1241.9453349794958) "><g  event="remove"><circle r="11"></circle><path transform="scale(.8) translate(-16, -16)" d="M24.778,21.419 19.276,15.917 24.777,10.415 21.949,7.585 16.447,13.087 10.945,7.585 8.117,10.415 13.618,15.917 8.116,21.419 10.946,24.248 16.447,18.746 21.948,24.248z"></path><title>Remove link.</title></g><g  event="link:options"><circle r="11" transform="translate(25)"></circle><path fill="white" transform="scale(.55) translate(29, -16)" d="M31.229,17.736c0.064-0.571,0.104-1.148,0.104-1.736s-0.04-1.166-0.104-1.737l-4.377-1.557c-0.218-0.716-0.504-1.401-0.851-2.05l1.993-4.192c-0.725-0.91-1.549-1.734-2.458-2.459l-4.193,1.994c-0.647-0.347-1.334-0.632-2.049-0.849l-1.558-4.378C17.165,0.708,16.588,0.667,16,0.667s-1.166,0.041-1.737,0.105L12.707,5.15c-0.716,0.217-1.401,0.502-2.05,0.849L6.464,4.005C5.554,4.73,4.73,5.554,4.005,6.464l1.994,4.192c-0.347,0.648-0.632,1.334-0.849,2.05l-4.378,1.557C0.708,14.834,0.667,15.412,0.667,16s0.041,1.165,0.105,1.736l4.378,1.558c0.217,0.715,0.502,1.401,0.849,2.049l-1.994,4.193c0.725,0.909,1.549,1.733,2.459,2.458l4.192-1.993c0.648,0.347,1.334,0.633,2.05,0.851l1.557,4.377c0.571,0.064,1.148,0.104,1.737,0.104c0.588,0,1.165-0.04,1.736-0.104l1.558-4.377c0.715-0.218,1.399-0.504,2.049-0.851l4.193,1.993c0.909-0.725,1.733-1.549,2.458-2.458l-1.993-4.193c0.347-0.647,0.633-1.334,0.851-2.049L31.229,17.736zM16,20.871c-2.69,0-4.872-2.182-4.872-4.871c0-2.69,2.182-4.872,4.872-4.872c2.689,0,4.871,2.182,4.871,4.872C20.871,18.689,18.689,20.871,16,20.871z"></path><title>Link options.</title></g></g></g></g><!--z-index:25--><g   id="j_13" ><path  stroke="#707070" d="M 1014 1208 L 827 1508" id="v-153" stroke-width="2" stroke-dasharray="30 30" fill="none" style="opacity: 1;"></path><path  fill="black" stroke="black" d="M 0 0 0 0" transform="matrix(-0.5299989865422611,0.8479982749181604,-0.8479982749181604,-0.5299989865422611,1014.25,1208)"></path><path  fill="#707070" stroke="#707070" d="M 20 0 L 0 10 L 20 20 z" id="v-155" transform="matrix(0.5299987607066414,-0.847998416065398,0.847998416065398,0.5299987607066414,818.2700160252483,1502.7000160848377)" style="opacity: 1;"></path><path  d="M 1014 1208 L 827 1508" id="v-154" fill="none" style="pointer-events: visiblepainted; cursor: auto;"></path><g ><g id="v-147"  label-idx="0" cursor="move" transform="matrix(1,0,0,1,920.5,1358)" style="opacity: 1;"><rect joint-selector="rect" id="v-150" fill="#ffffff" rx="3" ry="3" pointer-events="none" width="190.66937255859375" height="27.307647705078125" transform="matrix(1,0,0,1,-95.3,-13.7)"></rect><text joint-selector="text" id="v-149" font-size="24px" xml:space="preserve" y="0.8em" fill="#707070" text-anchor="middle" pointer-events="none" font-family="Arial" font-weight="normal" transform="matrix(1,0,0,1,0,-10.6)"><tspan dy="0" >Проводит оплату</tspan></text></g><g id="v-148"  label-idx="1" cursor="move" transform="matrix(1,0,0,1,910.5,1384.4000244140625)" style="opacity: 1;"><rect joint-selector="rect" id="v-152" fill="#ffffff" rx="3" ry="3"  width="0" height="0" transform="matrix(1,0,0,1,0,0)" display="none"></rect><text joint-selector="text" id="v-151" fill="#000000" font-size="14" text-anchor="middle" pointer-events="none"></text></g></g><g  display="none" style="display: none;"></g><g  id="v-157" display="none"><g  id="v-145"><path  end="source" d="M 26 0 L 0 13 L 26 26 z"></path></g><g  id="v-146"><path  end="target" d="M 26 0 L 0 13 L 26 26 z"></path></g></g><g  id="v-156" display="none"><g  id="v-144" transform="translate(992.8407411961142, 1241.9453349794958) "><g  event="remove"><circle r="11"></circle><path transform="scale(.8) translate(-16, -16)" d="M24.778,21.419 19.276,15.917 24.777,10.415 21.949,7.585 16.447,13.087 10.945,7.585 8.117,10.415 13.618,15.917 8.116,21.419 10.946,24.248 16.447,18.746 21.948,24.248z"></path><title>Remove link.</title></g><g  event="link:options"><circle r="11" transform="translate(25)"></circle><path fill="white" transform="scale(.55) translate(29, -16)" d="M31.229,17.736c0.064-0.571,0.104-1.148,0.104-1.736s-0.04-1.166-0.104-1.737l-4.377-1.557c-0.218-0.716-0.504-1.401-0.851-2.05l1.993-4.192c-0.725-0.91-1.549-1.734-2.458-2.459l-4.193,1.994c-0.647-0.347-1.334-0.632-2.049-0.849l-1.558-4.378C17.165,0.708,16.588,0.667,16,0.667s-1.166,0.041-1.737,0.105L12.707,5.15c-0.716,0.217-1.401,0.502-2.05,0.849L6.464,4.005C5.554,4.73,4.73,5.554,4.005,6.464l1.994,4.192c-0.347,0.648-0.632,1.334-0.849,2.05l-4.378,1.557C0.708,14.834,0.667,15.412,0.667,16s0.041,1.165,0.105,1.736l4.378,1.558c0.217,0.715,0.502,1.401,0.849,2.049l-1.994,4.193c0.725,0.909,1.549,1.733,2.459,2.458l4.192-1.993c0.648,0.347,1.334,0.633,2.05,0.851l1.557,4.377c0.571,0.064,1.148,0.104,1.737,0.104c0.588,0,1.165-0.04,1.736-0.104l1.558-4.377c0.715-0.218,1.399-0.504,2.049-0.851l4.193,1.993c0.909-0.725,1.733-1.549,2.458-2.458l-1.993-4.193c0.347-0.647,0.633-1.334,0.851-2.049L31.229,17.736zM16,20.871c-2.69,0-4.872-2.182-4.872-4.871c0-2.69,2.182-4.872,4.872-4.872c2.689,0,4.871,2.182,4.871,4.872C20.871,18.689,18.689,20.871,16,20.871z"></path><title>Link options.</title></g></g></g></g><!--z-index:26--></g><g ></g><g ></g><g ></g></g></svg>